<svg xmlns="http://www.w3.org/2000/svg" width="1502.189" height="1502.28" viewBox="0 0 1502.189 1502.28">
  <metadata><?xpacket begin="﻿" id="W5M0MpCehiHzreSzNTczkc9d"?>
<x:xmpmeta xmlns:x="adobe:ns:meta/" x:xmptk="Adobe XMP Core 5.6-c138 79.159824, 2016/09/14-01:09:01        ">
   <rdf:RDF xmlns:rdf="http://www.w3.org/1999/02/22-rdf-syntax-ns#">
      <rdf:Description rdf:about=""/>
   </rdf:RDF>
</x:xmpmeta>
                                                                                                    
                                                                                                    
                                                                                                    
                                                                                                    
                                                                                                    
                                                                                                    
                                                                                                    
                                                                                                    
                                                                                                    
                                                                                                    
                                                                                                    
                                                                                                    
                                                                                                    
                                                                                                    
                                                                                                    
                                                                                                    
                                                                                                    
                                                                                                    
                                                                                                    
                                                                                                    
                           
<?xpacket end="w"?></metadata>
<defs>
    <style>
      .cls-1 {
        fill: #f1f8f9;
        fill-rule: evenodd;
      }
    </style>
  </defs>
  <path id="Forma_9" data-name="Forma 9" class="cls-1" d="M1536.93,8497.71c-52.4-52.4-137.47-52.33-189.95.15l-311.3,311.32L260.7,9584.21c-52.486,52.48-52.553,137.55-.151,189.96s137.465,52.34,189.95-.15l705.788-705.84,380.49-380.51C1589.26,8635.19,1589.33,8550.12,1536.93,8497.71Zm186.32,1420.37-61.97-561.78c-3.53-31.98-42.5-45.62-65.27-22.85L1380.28,9549.2l-284.04,284.05c-22.77,22.77-9.13,61.74,22.85,65.27l446.81,49.29,114.94,12.68A38.459,38.459,0,0,0,1723.25,9918.08Zm-132.44-931.94c-52.4-52.41-137.46-52.34-189.95.15l-192.88,192.89L749.094,9638.1c-52.48,52.48-52.552,137.55-.149,189.96s137.469,52.33,189.949-.15l389.7-389.72,262.07-262.09C1643.15,9123.61,1643.22,9038.54,1590.81,8986.14Z" transform="translate(-221.281 -8458.44)"/>
</svg>
